<svg width="192" height="192" viewBox="0 0 192 192" fill="none" xmlns="http://www.w3.org/2000/svg">
  <defs>
    <linearGradient id="bg" x1="0%" y1="0%" x2="100%" y2="100%">
      <stop offset="0%" style="stop-color:#3B82F6"/>
      <stop offset="50%" style="stop-color:#1E40AF"/>
      <stop offset="100%" style="stop-color:#1E3A8A"/>
    </linearGradient>
    <linearGradient id="accent" x1="0%" y1="0%" x2="100%" y2="100%">
      <stop offset="0%" style="stop-color:#10B981"/>
      <stop offset="100%" style="stop-color:#059669"/>
    </linearGradient>
  </defs>
  
  <!-- Background rounded square -->
  <rect x="8" y="8" width="176" height="176" rx="38" fill="url(#bg)"/>
  
  <!-- Central brain design -->
  <g transform="translate(96,96)">
    <!-- Brain shape -->
    <path d="M-32,-24 C-36,-30 -40,-18 -38,-10 C-40,2 -34,10 -28,14 C-22,20 -12,22 0,20 C12,22 22,20 28,14 C34,10 40,2 38,-10 C40,-18 36,-30 32,-24 C26,-28 14,-30 0,-28 C-14,-30 -26,-28 -32,-24 Z" fill="white" opacity="0.9"/>
    
    <!-- Neural nodes -->
    <circle cx="-18" cy="-10" r="3" fill="url(#accent)"/>
    <circle cx="18" cy="-10" r="3" fill="url(#accent)"/>
    <circle cx="-10" cy="8" r="3" fill="url(#accent)"/>
    <circle cx="10" cy="8" r="3" fill="url(#accent)"/>
    <circle cx="0" cy="-14" r="3" fill="url(#accent)"/>
    
    <!-- Neural connections -->
    <g stroke="url(#accent)" stroke-width="1.5" opacity="0.7" fill="none">
      <line x1="-18" y1="-10" x2="0" y2="-14"/>
      <line x1="18" y1="-10" x2="0" y2="-14"/>
      <line x1="-10" y1="8" x2="0" y2="-14"/>
      <line x1="10" y1="8" x2="0" y2="-14"/>
      <line x1="-18" y1="-10" x2="-10" y2="8"/>
      <line x1="18" y1="-10" x2="10" y2="8"/>
    </g>
  </g>
  
  <!-- Letter J -->
  <path d="M96,48 L96,80 C96,90 88,98 78,98 C68,98 60,90 60,80" stroke="white" stroke-width="6" fill="none" stroke-linecap="round"/>
  
  <!-- Decorative dots -->
  <circle cx="96" cy="140" r="3" fill="white" opacity="0.6"/>
  <circle cx="80" cy="145" r="2" fill="white" opacity="0.4"/>
  <circle cx="112" cy="145" r="2" fill="white" opacity="0.4"/>
</svg>